# xmcd CD database file
# Copyright (C) 1995-1998 Ti Kan
#
# Track frame offsets:
#	183
#	22453
#	44120
#	64338
#	81788
#	102333
#	119388
#	138263
#	162338
#	185663
#
# Disc length: 2743 seconds
#
# Revision: 1
# Processed by: cddbd v1.4PL0 Copyright (c) Steve Scherf et al.
# Submitted via: CDex 1.30Release
#
DISCID=960ab50a
DTITLE=Ivano Fossati - I Miti Musica
DYEAR=1999
DGENRE=Blues
TTITLE0=La casa del serpente
TTITLE1=Matto
TTITLE2=Dedicato
TTITLE3=La mia banda suona il rock
TTITLE4=E di nuovo cambio casa
TTITLE5=Limonata e zanzare
TTITLE6=Vola
TTITLE7=La costruzione di un amore
TTITLE8=Panama
TTITLE9=La signora cantava il blues
EXTD=YEAR: 1999 ID3G:   0
EXTT0=
EXTT1=
EXTT2=
EXTT3=
EXTT4=
EXTT5=
EXTT6=
EXTT7=
EXTT8=
EXTT9=
PLAYORDER=
